<svg width="370" height="60" viewBox="0 0 370 60" fill="none" xmlns="http://www.w3.org/2000/svg">
<mask id="mask0_87_17" style="mask-type:alpha" maskUnits="userSpaceOnUse" x="0" y="0" width="370" height="60">
<rect width="370" height="60" rx="3" fill="#007AEB"/>
</mask>
<g mask="url(#mask0_87_17)">
<rect width="370" height="60" rx="3" fill="url(#paint0_linear_87_17)"/>
<circle cx="15" cy="12" r="50" fill="white"/>
<circle opacity="0.5" cx="14" cy="50" r="50" fill="#E5E9F7"/>
</g>
<rect x="0.5" y="0.5" width="369" height="59" rx="2.5" stroke="#E5E5E5"/>
<path d="M32.7956 42V31.5257H36.3496L36.8779 27.4247H32.7956V24.8125C32.7956 23.6291 33.1273 22.8188 34.8355 22.8188H37V19.1625C35.9468 19.0503 34.8882 18.9961 33.8291 19.0002C30.6877 19.0002 28.5308 20.907 28.5308 24.4073V27.417H25V31.518H28.5386V42H32.7956Z" fill="#007AEB"/>
<path d="M94.775 39V29.5C94.775 29.0667 94.775 28.625 94.775 28.175C94.7917 27.7083 94.8 27.2333 94.8 26.75C94.25 27.2667 93.6333 27.7083 92.95 28.075C92.2833 28.4417 91.5917 28.6917 90.875 28.825L90.475 25.275C91.0417 25.2083 91.6583 25.0333 92.325 24.75C93.0083 24.4667 93.6417 24.125 94.225 23.725C94.8083 23.3083 95.2333 22.9 95.5 22.5H98.925V39H94.775ZM102.267 39V36.25C104.15 35.0667 105.667 33.9917 106.817 33.025C107.983 32.0417 108.833 31.125 109.367 30.275C109.9 29.425 110.167 28.6167 110.167 27.85C110.167 27.2167 109.975 26.6917 109.592 26.275C109.225 25.8417 108.675 25.625 107.942 25.625C107.158 25.625 106.542 25.9167 106.092 26.5C105.658 27.0667 105.433 27.9 105.417 29L101.742 27.875C101.775 26.6583 102.067 25.6333 102.617 24.8C103.183 23.95 103.95 23.3167 104.917 22.9C105.883 22.4667 106.983 22.25 108.217 22.25C109.667 22.25 110.85 22.5167 111.767 23.05C112.683 23.5667 113.358 24.2333 113.792 25.05C114.225 25.85 114.442 26.6833 114.442 27.55C114.442 29.15 113.833 30.6083 112.617 31.925C111.4 33.225 109.675 34.5167 107.442 35.8V35.825C107.858 35.7917 108.383 35.7667 109.017 35.75C109.667 35.7333 110.25 35.725 110.767 35.725H114.642V39H102.267ZM136.584 22.5V39H132.784V31.425L132.909 26.35H132.859L128.784 39H125.309L121.234 26.35H121.184L121.309 31.425V39H117.484V22.5H123.609L126.209 30.9L127.134 34.4H127.184L128.134 30.925L130.709 22.5H136.584ZM155.256 29.055H148.762V32.676H153.828V33.951H148.762V39H147.402V27.78H155.256V29.055ZM160.113 30.33C160.917 30.33 161.626 30.5057 162.238 30.857C162.861 31.2083 163.348 31.7183 163.7 32.387C164.051 33.0443 164.227 33.832 164.227 34.75C164.227 35.668 164.051 36.4613 163.7 37.13C163.348 37.7873 162.861 38.2917 162.238 38.643C161.626 38.9943 160.917 39.17 160.113 39.17C159.319 39.17 158.611 38.9943 157.988 38.643C157.364 38.2917 156.877 37.7873 156.526 37.13C156.174 36.4613 155.999 35.668 155.999 34.75C155.999 33.832 156.174 33.0443 156.526 32.387C156.877 31.7183 157.364 31.2083 157.988 30.857C158.611 30.5057 159.319 30.33 160.113 30.33ZM160.113 31.503C159.251 31.503 158.577 31.792 158.09 32.37C157.602 32.948 157.359 33.7413 157.359 34.75C157.359 35.7587 157.602 36.552 158.09 37.13C158.577 37.708 159.251 37.997 160.113 37.997C160.974 37.997 161.648 37.708 162.136 37.13C162.623 36.552 162.867 35.7587 162.867 34.75C162.867 33.7413 162.623 32.948 162.136 32.37C161.648 31.792 160.974 31.503 160.113 31.503ZM168.079 26.59V36.841C168.079 37.2717 168.158 37.572 168.317 37.742C168.476 37.9007 168.731 37.98 169.082 37.98C169.309 37.98 169.496 37.963 169.643 37.929C169.79 37.895 169.989 37.8327 170.238 37.742L170.017 38.932C169.643 39.0907 169.224 39.17 168.759 39.17C167.399 39.17 166.719 38.4107 166.719 36.892V26.59H168.079ZM173.275 26.59V36.841C173.275 37.2717 173.355 37.572 173.513 37.742C173.672 37.9007 173.927 37.98 174.278 37.98C174.505 37.98 174.692 37.963 174.839 37.929C174.987 37.895 175.185 37.8327 175.434 37.742L175.213 38.932C174.839 39.0907 174.42 39.17 173.955 39.17C172.595 39.17 171.915 38.4107 171.915 36.892V26.59H173.275ZM180.699 30.33C181.503 30.33 182.212 30.5057 182.824 30.857C183.447 31.2083 183.934 31.7183 184.286 32.387C184.637 33.0443 184.813 33.832 184.813 34.75C184.813 35.668 184.637 36.4613 184.286 37.13C183.934 37.7873 183.447 38.2917 182.824 38.643C182.212 38.9943 181.503 39.17 180.699 39.17C179.905 39.17 179.197 38.9943 178.574 38.643C177.95 38.2917 177.463 37.7873 177.112 37.13C176.76 36.4613 176.585 35.668 176.585 34.75C176.585 33.832 176.76 33.0443 177.112 32.387C177.463 31.7183 177.95 31.2083 178.574 30.857C179.197 30.5057 179.905 30.33 180.699 30.33ZM180.699 31.503C179.837 31.503 179.163 31.792 178.676 32.37C178.188 32.948 177.945 33.7413 177.945 34.75C177.945 35.7587 178.188 36.552 178.676 37.13C179.163 37.708 179.837 37.997 180.699 37.997C181.56 37.997 182.234 37.708 182.722 37.13C183.209 36.552 183.453 35.7587 183.453 34.75C183.453 33.7413 183.209 32.948 182.722 32.37C182.234 31.792 181.56 31.503 180.699 31.503ZM197.766 30.5H199.279L196.321 39H194.961L192.564 32.234L190.303 39H188.943L185.985 30.5H187.498L189.64 37.419L191.952 30.5H193.312L195.624 37.419L197.766 30.5ZM204.606 39.17C203.801 39.17 203.081 38.9943 202.447 38.643C201.823 38.2917 201.336 37.7873 200.985 37.13C200.633 36.4613 200.458 35.668 200.458 34.75C200.458 33.832 200.633 33.0443 200.985 32.387C201.336 31.7183 201.818 31.2083 202.43 30.857C203.042 30.5057 203.739 30.33 204.521 30.33C205.314 30.33 205.988 30.5 206.544 30.84C207.11 31.18 207.541 31.6447 207.836 32.234C208.13 32.812 208.278 33.4637 208.278 34.189C208.278 34.3817 208.272 34.5573 208.261 34.716C208.249 34.8747 208.232 35.0163 208.21 35.141H201.801C201.869 36.0363 202.146 36.7333 202.634 37.232C203.121 37.7307 203.767 37.98 204.572 37.98C205.195 37.98 205.699 37.861 206.085 37.623C206.481 37.385 206.799 37.062 207.037 36.654L208.108 37.283C207.79 37.861 207.331 38.32 206.731 38.66C206.141 39 205.433 39.17 204.606 39.17ZM204.487 31.52C203.773 31.52 203.183 31.7353 202.719 32.166C202.265 32.5853 201.976 33.1747 201.852 33.934H206.918C206.884 33.1633 206.646 32.5683 206.204 32.149C205.762 31.7297 205.189 31.52 204.487 31.52ZM210.864 39V30.5H211.969L212.156 31.894C212.632 30.8513 213.539 30.33 214.876 30.33C215.024 30.33 215.182 30.3413 215.352 30.364C215.534 30.3867 215.687 30.432 215.811 30.5L215.573 31.741C215.449 31.6957 215.313 31.6617 215.165 31.639C215.018 31.6163 214.808 31.605 214.536 31.605C214.185 31.605 213.828 31.707 213.465 31.911C213.114 32.115 212.819 32.4267 212.581 32.846C212.343 33.254 212.224 33.7753 212.224 34.41V39H210.864ZM220.498 39.17C219.671 39.17 218.906 38.9943 218.203 38.643C217.512 38.2917 216.979 37.793 216.605 37.147L217.761 36.314C218.011 36.8353 218.373 37.2433 218.849 37.538C219.337 37.8327 219.92 37.98 220.6 37.98C221.201 37.98 221.671 37.8667 222.011 37.64C222.351 37.402 222.521 37.096 222.521 36.722C222.521 36.484 222.442 36.2687 222.283 36.076C222.136 35.872 221.847 35.7247 221.416 35.634L219.376 35.209C218.549 35.039 217.954 34.7557 217.591 34.359C217.24 33.9623 217.064 33.4693 217.064 32.88C217.064 32.4153 217.195 31.9903 217.455 31.605C217.727 31.2197 218.107 30.9137 218.594 30.687C219.093 30.449 219.677 30.33 220.345 30.33C221.184 30.33 221.892 30.4943 222.47 30.823C223.048 31.1517 223.479 31.6163 223.762 32.217L222.623 32.965C222.431 32.4663 222.119 32.1037 221.688 31.877C221.258 31.639 220.81 31.52 220.345 31.52C219.733 31.52 219.257 31.6447 218.917 31.894C218.577 32.1433 218.407 32.455 218.407 32.829C218.407 33.0783 218.492 33.3107 218.662 33.526C218.832 33.73 219.15 33.8773 219.614 33.968L221.739 34.41C222.533 34.5687 223.088 34.8293 223.405 35.192C223.723 35.5547 223.881 35.9967 223.881 36.518C223.881 37.3227 223.57 37.9687 222.946 38.456C222.323 38.932 221.507 39.17 220.498 39.17Z" fill="white"/>
<defs>
<linearGradient id="paint0_linear_87_17" x1="67" y1="1.27664e-05" x2="370" y2="60" gradientUnits="userSpaceOnUse">
<stop stop-color="#0075E0"/>
<stop offset="1" stop-color="#63B2FC"/>
</linearGradient>
</defs>
</svg>
