<svg width="370" height="60" viewBox="0 0 370 60" fill="none" xmlns="http://www.w3.org/2000/svg">
<mask id="mask0_87_18" style="mask-type:alpha" maskUnits="userSpaceOnUse" x="0" y="0" width="370" height="60">
<rect width="370" height="60" rx="3" fill="#007AEB"/>
</mask>
<g mask="url(#mask0_87_18)">
<rect width="370" height="60" rx="3" fill="url(#paint0_linear_87_18)"/>
<circle cx="15" cy="12" r="50" fill="white"/>
<circle opacity="0.5" cx="14" cy="50" r="50" fill="#E5E9F7"/>
</g>
<rect x="0.5" y="0.5" width="369" height="59" rx="2.5" stroke="#E5E5E5"/>
<path d="M39.7398 25.4859C39.7543 25.6832 39.7543 25.8795 39.7543 26.0757C39.7543 32.0806 35.2171 39 26.9251 39C24.3704 39 21.9972 38.2546 20 36.96C20.3627 37.0018 20.712 37.0164 21.0893 37.0164C23.1189 37.0214 25.091 36.3377 26.6878 35.0757C25.7468 35.0585 24.8346 34.7458 24.0785 34.1811C23.3225 33.6165 22.7604 32.8281 22.4707 31.9261C22.7494 31.9678 23.0293 31.996 23.3226 31.996C23.7267 31.996 24.1331 31.9396 24.5104 31.8415C23.4891 31.6338 22.5709 31.0762 21.9116 30.2635C21.2524 29.4508 20.893 28.4333 20.8945 27.3838V27.3274C21.4956 27.6646 22.1931 27.8755 22.9319 27.9036C22.3129 27.4893 21.8054 26.9271 21.4546 26.2671C21.1038 25.6072 20.9206 24.87 20.9213 24.1214C20.9213 23.2779 21.1441 22.5043 21.5348 21.83C22.6679 23.234 24.0811 24.3825 25.6829 25.2013C27.2846 26.0201 29.0393 26.4909 30.8332 26.5831C30.7638 26.2448 30.7212 25.8941 30.7212 25.5423C30.721 24.9457 30.8374 24.3549 31.0639 23.8037C31.2904 23.2524 31.6225 22.7516 32.0413 22.3297C32.4601 21.9079 32.9573 21.5733 33.5045 21.3452C34.0518 21.117 34.6383 20.9997 35.2305 21C36.5291 21 37.7012 21.5481 38.5251 22.4344C39.5347 22.2378 40.5027 21.8665 41.3865 21.3372C41.05 22.3868 40.3451 23.2769 39.4039 23.8406C40.2993 23.7378 41.1743 23.5006 42 23.137C41.3833 24.0426 40.6191 24.8368 39.7398 25.4859Z" fill="#03B5FF"/>
<path d="M94.775 39V29.5C94.775 29.0667 94.775 28.625 94.775 28.175C94.7917 27.7083 94.8 27.2333 94.8 26.75C94.25 27.2667 93.6333 27.7083 92.95 28.075C92.2833 28.4417 91.5917 28.6917 90.875 28.825L90.475 25.275C91.0417 25.2083 91.6583 25.0333 92.325 24.75C93.0083 24.4667 93.6417 24.125 94.225 23.725C94.8083 23.3083 95.2333 22.9 95.5 22.5H98.925V39H94.775ZM109.317 22.25C110.633 22.25 111.8 22.525 112.817 23.075C113.85 23.625 114.592 24.5667 115.042 25.9L111.542 27.55C111.375 26.9667 111.083 26.5083 110.667 26.175C110.267 25.825 109.725 25.65 109.042 25.65C108.075 25.65 107.308 26.0833 106.742 26.95C106.175 27.8 105.892 28.9833 105.892 30.5V30.9L105.942 31.05C106.125 30.55 106.433 30.125 106.867 29.775C107.3 29.425 107.792 29.1667 108.342 29C108.892 28.8167 109.442 28.725 109.992 28.725C111.008 28.725 111.917 28.925 112.717 29.325C113.517 29.725 114.142 30.3 114.592 31.05C115.058 31.8 115.292 32.6917 115.292 33.725C115.292 34.8583 115.033 35.8417 114.517 36.675C114 37.4917 113.275 38.125 112.342 38.575C111.425 39.025 110.342 39.25 109.092 39.25C107.675 39.25 106.425 38.9417 105.342 38.325C104.275 37.6917 103.442 36.7583 102.842 35.525C102.258 34.275 101.967 32.7333 101.967 30.9C101.967 28.95 102.292 27.3333 102.942 26.05C103.592 24.7667 104.467 23.8167 105.567 23.2C106.683 22.5667 107.933 22.25 109.317 22.25ZM109.017 31.625C108.35 31.625 107.792 31.825 107.342 32.225C106.892 32.6083 106.667 33.1417 106.667 33.825C106.667 34.475 106.892 35.0083 107.342 35.425C107.808 35.825 108.367 36.025 109.017 36.025C109.767 36.025 110.342 35.8333 110.742 35.45C111.158 35.0667 111.367 34.525 111.367 33.825C111.367 33.125 111.158 32.5833 110.742 32.2C110.342 31.8167 109.767 31.625 109.017 31.625ZM137.097 22.5V39H133.297V31.425L133.422 26.35H133.372L129.297 39H125.822L121.747 26.35H121.697L121.822 31.425V39H117.997V22.5H124.122L126.722 30.9L127.647 34.4H127.697L128.647 30.925L131.222 22.5H137.097ZM155.769 29.055H149.275V32.676H154.341V33.951H149.275V39H147.915V27.78H155.769V29.055ZM160.625 30.33C161.43 30.33 162.138 30.5057 162.75 30.857C163.374 31.2083 163.861 31.7183 164.212 32.387C164.564 33.0443 164.739 33.832 164.739 34.75C164.739 35.668 164.564 36.4613 164.212 37.13C163.861 37.7873 163.374 38.2917 162.75 38.643C162.138 38.9943 161.43 39.17 160.625 39.17C159.832 39.17 159.124 38.9943 158.5 38.643C157.877 38.2917 157.39 37.7873 157.038 37.13C156.687 36.4613 156.511 35.668 156.511 34.75C156.511 33.832 156.687 33.0443 157.038 32.387C157.39 31.7183 157.877 31.2083 158.5 30.857C159.124 30.5057 159.832 30.33 160.625 30.33ZM160.625 31.503C159.764 31.503 159.09 31.792 158.602 32.37C158.115 32.948 157.871 33.7413 157.871 34.75C157.871 35.7587 158.115 36.552 158.602 37.13C159.09 37.708 159.764 37.997 160.625 37.997C161.487 37.997 162.161 37.708 162.648 37.13C163.136 36.552 163.379 35.7587 163.379 34.75C163.379 33.7413 163.136 32.948 162.648 32.37C162.161 31.792 161.487 31.503 160.625 31.503ZM168.592 26.59V36.841C168.592 37.2717 168.671 37.572 168.83 37.742C168.988 37.9007 169.243 37.98 169.595 37.98C169.821 37.98 170.008 37.963 170.156 37.929C170.303 37.895 170.501 37.8327 170.751 37.742L170.53 38.932C170.156 39.0907 169.736 39.17 169.272 39.17C167.912 39.17 167.232 38.4107 167.232 36.892V26.59H168.592ZM173.788 26.59V36.841C173.788 37.2717 173.867 37.572 174.026 37.742C174.185 37.9007 174.44 37.98 174.791 37.98C175.018 37.98 175.205 37.963 175.352 37.929C175.499 37.895 175.698 37.8327 175.947 37.742L175.726 38.932C175.352 39.0907 174.933 39.17 174.468 39.17C173.108 39.17 172.428 38.4107 172.428 36.892V26.59H173.788ZM181.211 30.33C182.016 30.33 182.724 30.5057 183.336 30.857C183.96 31.2083 184.447 31.7183 184.798 32.387C185.15 33.0443 185.325 33.832 185.325 34.75C185.325 35.668 185.15 36.4613 184.798 37.13C184.447 37.7873 183.96 38.2917 183.336 38.643C182.724 38.9943 182.016 39.17 181.211 39.17C180.418 39.17 179.71 38.9943 179.086 38.643C178.463 38.2917 177.976 37.7873 177.624 37.13C177.273 36.4613 177.097 35.668 177.097 34.75C177.097 33.832 177.273 33.0443 177.624 32.387C177.976 31.7183 178.463 31.2083 179.086 30.857C179.71 30.5057 180.418 30.33 181.211 30.33ZM181.211 31.503C180.35 31.503 179.676 31.792 179.188 32.37C178.701 32.948 178.457 33.7413 178.457 34.75C178.457 35.7587 178.701 36.552 179.188 37.13C179.676 37.708 180.35 37.997 181.211 37.997C182.073 37.997 182.747 37.708 183.234 37.13C183.722 36.552 183.965 35.7587 183.965 34.75C183.965 33.7413 183.722 32.948 183.234 32.37C182.747 31.792 182.073 31.503 181.211 31.503ZM198.279 30.5H199.792L196.834 39H195.474L193.077 32.234L190.816 39H189.456L186.498 30.5H188.011L190.153 37.419L192.465 30.5H193.825L196.137 37.419L198.279 30.5ZM205.118 39.17C204.314 39.17 203.594 38.9943 202.959 38.643C202.336 38.2917 201.849 37.7873 201.497 37.13C201.146 36.4613 200.97 35.668 200.97 34.75C200.97 33.832 201.146 33.0443 201.497 32.387C201.849 31.7183 202.33 31.2083 202.942 30.857C203.554 30.5057 204.251 30.33 205.033 30.33C205.827 30.33 206.501 30.5 207.056 30.84C207.623 31.18 208.054 31.6447 208.348 32.234C208.643 32.812 208.79 33.4637 208.79 34.189C208.79 34.3817 208.785 34.5573 208.773 34.716C208.762 34.8747 208.745 35.0163 208.722 35.141H202.313C202.381 36.0363 202.659 36.7333 203.146 37.232C203.634 37.7307 204.28 37.98 205.084 37.98C205.708 37.98 206.212 37.861 206.597 37.623C206.994 37.385 207.311 37.062 207.549 36.654L208.62 37.283C208.303 37.861 207.844 38.32 207.243 38.66C206.654 39 205.946 39.17 205.118 39.17ZM204.999 31.52C204.285 31.52 203.696 31.7353 203.231 32.166C202.778 32.5853 202.489 33.1747 202.364 33.934H207.43C207.396 33.1633 207.158 32.5683 206.716 32.149C206.274 31.7297 205.702 31.52 204.999 31.52ZM211.377 39V30.5H212.482L212.669 31.894C213.145 30.8513 214.052 30.33 215.389 30.33C215.536 30.33 215.695 30.3413 215.865 30.364C216.046 30.3867 216.199 30.432 216.324 30.5L216.086 31.741C215.961 31.6957 215.825 31.6617 215.678 31.639C215.531 31.6163 215.321 31.605 215.049 31.605C214.698 31.605 214.341 31.707 213.978 31.911C213.627 32.115 213.332 32.4267 213.094 32.846C212.856 33.254 212.737 33.7753 212.737 34.41V39H211.377ZM221.011 39.17C220.184 39.17 219.419 38.9943 218.716 38.643C218.025 38.2917 217.492 37.793 217.118 37.147L218.274 36.314C218.523 36.8353 218.886 37.2433 219.362 37.538C219.849 37.8327 220.433 37.98 221.113 37.98C221.714 37.98 222.184 37.8667 222.524 37.64C222.864 37.402 223.034 37.096 223.034 36.722C223.034 36.484 222.955 36.2687 222.796 36.076C222.649 35.872 222.36 35.7247 221.929 35.634L219.889 35.209C219.062 35.039 218.467 34.7557 218.104 34.359C217.753 33.9623 217.577 33.4693 217.577 32.88C217.577 32.4153 217.707 31.9903 217.968 31.605C218.24 31.2197 218.62 30.9137 219.107 30.687C219.606 30.449 220.189 30.33 220.858 30.33C221.697 30.33 222.405 30.4943 222.983 30.823C223.561 31.1517 223.992 31.6163 224.275 32.217L223.136 32.965C222.943 32.4663 222.632 32.1037 222.201 31.877C221.77 31.639 221.323 31.52 220.858 31.52C220.246 31.52 219.77 31.6447 219.43 31.894C219.09 32.1433 218.92 32.455 218.92 32.829C218.92 33.0783 219.005 33.3107 219.175 33.526C219.345 33.73 219.662 33.8773 220.127 33.968L222.252 34.41C223.045 34.5687 223.601 34.8293 223.918 35.192C224.235 35.5547 224.394 35.9967 224.394 36.518C224.394 37.3227 224.082 37.9687 223.459 38.456C222.836 38.932 222.02 39.17 221.011 39.17Z" fill="white"/>
<defs>
<linearGradient id="paint0_linear_87_18" x1="67" y1="1.27664e-05" x2="370" y2="60" gradientUnits="userSpaceOnUse">
<stop stop-color="#00B2FF"/>
<stop offset="1" stop-color="#42DDFF"/>
</linearGradient>
</defs>
</svg>
