<svg width="370" height="60" viewBox="0 0 370 60" fill="none" xmlns="http://www.w3.org/2000/svg">
<mask id="mask0_87_27" style="mask-type:alpha" maskUnits="userSpaceOnUse" x="0" y="0" width="370" height="60">
<rect width="370" height="60" rx="3" fill="#007AEB"/>
</mask>
<g mask="url(#mask0_87_27)">
<rect width="370" height="60" rx="3" fill="url(#paint0_linear_87_27)"/>
<circle cx="15" cy="12" r="50" fill="white"/>
<circle opacity="0.5" cx="14" cy="50" r="50" fill="#E5E9F7"/>
</g>
<rect x="0.5" y="0.5" width="369" height="59" rx="2.5" stroke="#E5E5E5"/>
<path d="M30.9965 40C28.2646 40 27.9426 39.9856 26.8765 39.939C26.0452 39.9117 25.2246 39.743 24.4501 39.44C23.7873 39.1825 23.1854 38.7901 22.6827 38.2878C22.1799 37.7856 21.7872 37.1844 21.5295 36.5225C21.2378 35.7463 21.0804 34.9262 21.0642 34.0974C21.002 33.035 21.002 32.6868 21.002 29.98C21.002 27.2444 21.0165 26.925 21.0642 25.866C21.0808 25.0383 21.2381 24.2193 21.5295 23.4442C21.7869 22.7815 22.1798 22.1796 22.6833 21.6771C23.1868 21.1745 23.7896 20.7824 24.4534 20.5256C25.2293 20.2331 26.0496 20.0756 26.8787 20.0599C27.9393 20 28.288 20 30.9965 20C33.7505 20 34.067 20.0144 35.1164 20.0599C35.947 20.0754 36.771 20.2329 37.5484 20.5256C38.212 20.7827 38.8147 21.1749 39.3181 21.6774C39.8216 22.1799 40.2146 22.7817 40.4723 23.4442C40.7688 24.2315 40.9276 25.0632 40.9398 25.9026C41.002 26.965 41.002 27.312 41.002 30.0177C41.002 32.7234 40.9865 33.0783 40.9398 34.1284C40.9232 34.9581 40.7655 35.7789 40.4734 36.5558C40.2151 37.2181 39.8217 37.8196 39.3181 38.3221C38.8146 38.8245 38.2119 39.2169 37.5484 39.4744C36.771 39.7649 35.9504 39.9224 35.1208 39.939C34.0603 40 33.7127 40 30.9965 40ZM30.9587 21.7554C28.2424 21.7554 27.9604 21.7687 26.8998 21.8164C26.2665 21.8246 25.6392 21.9413 25.0453 22.1612C24.6122 22.327 24.2186 22.5816 23.89 22.9086C23.5614 23.2356 23.305 23.6277 23.1375 24.0597C22.9154 24.6585 22.7988 25.2916 22.7921 25.9304C22.7333 27.0049 22.7333 27.2865 22.7333 29.98C22.7333 32.6414 22.7433 32.9641 22.7921 34.0319C22.8021 34.664 22.9187 35.2905 23.1375 35.8838C23.4773 36.7565 24.1703 37.4462 25.0464 37.7811C25.6396 38.0024 26.2667 38.1191 26.8998 38.126C27.9748 38.1881 28.258 38.1881 30.9587 38.1881C33.6827 38.1881 33.9648 38.1748 35.0165 38.126C35.6499 38.1183 36.2772 38.0017 36.871 37.7811C37.3018 37.614 37.6932 37.3593 38.0201 37.033C38.347 36.7068 38.6024 36.3161 38.7699 35.886C38.992 35.2872 39.1086 34.6529 39.1153 34.0142H39.1275C39.1753 32.9541 39.1753 32.6713 39.1753 29.9623C39.1753 27.2533 39.163 26.9683 39.1153 25.9093C39.1052 25.2777 38.9885 24.6524 38.7699 24.0597C38.6028 23.6289 38.3476 23.2376 38.0206 22.9108C37.6937 22.5839 37.3022 22.3287 36.871 22.1612C36.2769 21.9395 35.6494 21.8241 35.0165 21.8164C33.9426 21.7554 33.6616 21.7554 30.9587 21.7554ZM30.9965 35.102C29.981 35.1027 28.9881 34.8026 28.1435 34.2398C27.2988 33.6769 26.6403 32.8766 26.2512 31.94C25.8621 31.0034 25.7599 29.9726 25.9575 28.9779C26.1551 27.9833 26.6437 27.0696 27.3614 26.3523C28.0791 25.6349 28.9938 25.1463 29.9897 24.9481C30.9855 24.7499 32.0179 24.851 32.9562 25.2388C33.8945 25.6265 34.6966 26.2834 35.261 27.1264C35.8254 27.9693 36.1267 28.9605 36.1269 29.9745C36.1252 31.3331 35.5842 32.6356 34.6226 33.5967C33.6609 34.5578 32.357 35.0991 30.9965 35.102ZM30.9965 26.6456C30.3376 26.6456 29.6934 26.8407 29.1456 27.2062C28.5977 27.5718 28.1707 28.0913 27.9186 28.6992C27.6664 29.3071 27.6004 29.976 27.729 30.6213C27.8575 31.2666 28.1748 31.8594 28.6407 32.3246C29.1067 32.7898 29.7003 33.1067 30.3465 33.235C30.9928 33.3634 31.6626 33.2975 32.2714 33.0457C32.8801 32.7939 33.4004 32.3676 33.7665 31.8205C34.1326 31.2734 34.3279 30.6302 34.3279 29.9723C34.3259 29.0906 33.9742 28.2457 33.3499 27.6222C32.7256 26.9988 31.8794 26.6476 30.9965 26.6456ZM36.3268 25.855C36.1696 25.8544 36.0141 25.8229 35.8691 25.7623C35.724 25.7017 35.5924 25.6131 35.4816 25.5017C35.258 25.2767 35.133 24.9722 35.1342 24.6551C35.1353 24.3381 35.2626 24.0345 35.4879 23.8112C35.7133 23.5878 36.0182 23.463 36.3357 23.4642C36.6532 23.4654 36.9572 23.5924 37.1809 23.8174C37.4046 24.0425 37.5296 24.347 37.5284 24.664C37.5272 24.981 37.4 25.2846 37.1746 25.508C36.9493 25.7313 36.6443 25.8561 36.3268 25.855Z" fill="#8201AF"/>
<path d="M94.775 39V29.5C94.775 29.0667 94.775 28.625 94.775 28.175C94.7917 27.7083 94.8 27.2333 94.8 26.75C94.25 27.2667 93.6333 27.7083 92.95 28.075C92.2833 28.4417 91.5917 28.6917 90.875 28.825L90.475 25.275C91.0417 25.2083 91.6583 25.0333 92.325 24.75C93.0083 24.4667 93.6417 24.125 94.225 23.725C94.8083 23.3083 95.2333 22.9 95.5 22.5H98.925V39H94.775ZM108.817 39.25C106.567 39.25 104.858 38.5333 103.692 37.1C102.542 35.6667 101.967 33.55 101.967 30.75C101.967 27.95 102.542 25.8333 103.692 24.4C104.858 22.9667 106.567 22.25 108.817 22.25C111.067 22.25 112.767 22.9667 113.917 24.4C115.083 25.8333 115.667 27.95 115.667 30.75C115.667 33.55 115.083 35.6667 113.917 37.1C112.767 38.5333 111.067 39.25 108.817 39.25ZM108.817 35.9C109.733 35.9 110.392 35.5083 110.792 34.725C111.208 33.925 111.417 32.6 111.417 30.75C111.417 28.9 111.208 27.5833 110.792 26.8C110.392 26 109.733 25.6 108.817 25.6C107.9 25.6 107.233 26 106.817 26.8C106.417 27.5833 106.217 28.9 106.217 30.75C106.217 32.6 106.417 33.925 106.817 34.725C107.233 35.5083 107.9 35.9 108.817 35.9ZM122.63 21.2V31.75L127.38 26.5H132.105L127.505 31.4L132.38 39H127.68L124.655 33.875L122.63 36.125V39H118.38V21.2H122.63ZM148.884 29.055H142.39V32.676H147.456V33.951H142.39V39H141.03V27.78H148.884V29.055ZM153.741 30.33C154.545 30.33 155.254 30.5057 155.866 30.857C156.489 31.2083 156.976 31.7183 157.328 32.387C157.679 33.0443 157.855 33.832 157.855 34.75C157.855 35.668 157.679 36.4613 157.328 37.13C156.976 37.7873 156.489 38.2917 155.866 38.643C155.254 38.9943 154.545 39.17 153.741 39.17C152.947 39.17 152.239 38.9943 151.616 38.643C150.992 38.2917 150.505 37.7873 150.154 37.13C149.802 36.4613 149.627 35.668 149.627 34.75C149.627 33.832 149.802 33.0443 150.154 32.387C150.505 31.7183 150.992 31.2083 151.616 30.857C152.239 30.5057 152.947 30.33 153.741 30.33ZM153.741 31.503C152.879 31.503 152.205 31.792 151.718 32.37C151.23 32.948 150.987 33.7413 150.987 34.75C150.987 35.7587 151.23 36.552 151.718 37.13C152.205 37.708 152.879 37.997 153.741 37.997C154.602 37.997 155.276 37.708 155.764 37.13C156.251 36.552 156.495 35.7587 156.495 34.75C156.495 33.7413 156.251 32.948 155.764 32.37C155.276 31.792 154.602 31.503 153.741 31.503ZM161.707 26.59V36.841C161.707 37.2717 161.786 37.572 161.945 37.742C162.104 37.9007 162.359 37.98 162.71 37.98C162.937 37.98 163.124 37.963 163.271 37.929C163.418 37.895 163.617 37.8327 163.866 37.742L163.645 38.932C163.271 39.0907 162.852 39.17 162.387 39.17C161.027 39.17 160.347 38.4107 160.347 36.892V26.59H161.707ZM166.903 26.59V36.841C166.903 37.2717 166.983 37.572 167.141 37.742C167.3 37.9007 167.555 37.98 167.906 37.98C168.133 37.98 168.32 37.963 168.467 37.929C168.615 37.895 168.813 37.8327 169.062 37.742L168.841 38.932C168.467 39.0907 168.048 39.17 167.583 39.17C166.223 39.17 165.543 38.4107 165.543 36.892V26.59H166.903ZM174.327 30.33C175.131 30.33 175.84 30.5057 176.452 30.857C177.075 31.2083 177.562 31.7183 177.914 32.387C178.265 33.0443 178.441 33.832 178.441 34.75C178.441 35.668 178.265 36.4613 177.914 37.13C177.562 37.7873 177.075 38.2917 176.452 38.643C175.84 38.9943 175.131 39.17 174.327 39.17C173.533 39.17 172.825 38.9943 172.202 38.643C171.578 38.2917 171.091 37.7873 170.74 37.13C170.388 36.4613 170.213 35.668 170.213 34.75C170.213 33.832 170.388 33.0443 170.74 32.387C171.091 31.7183 171.578 31.2083 172.202 30.857C172.825 30.5057 173.533 30.33 174.327 30.33ZM174.327 31.503C173.465 31.503 172.791 31.792 172.304 32.37C171.816 32.948 171.573 33.7413 171.573 34.75C171.573 35.7587 171.816 36.552 172.304 37.13C172.791 37.708 173.465 37.997 174.327 37.997C175.188 37.997 175.862 37.708 176.35 37.13C176.837 36.552 177.081 35.7587 177.081 34.75C177.081 33.7413 176.837 32.948 176.35 32.37C175.862 31.792 175.188 31.503 174.327 31.503ZM191.394 30.5H192.907L189.949 39H188.589L186.192 32.234L183.931 39H182.571L179.613 30.5H181.126L183.268 37.419L185.58 30.5H186.94L189.252 37.419L191.394 30.5ZM198.234 39.17C197.429 39.17 196.709 38.9943 196.075 38.643C195.451 38.2917 194.964 37.7873 194.613 37.13C194.261 36.4613 194.086 35.668 194.086 34.75C194.086 33.832 194.261 33.0443 194.613 32.387C194.964 31.7183 195.446 31.2083 196.058 30.857C196.67 30.5057 197.367 30.33 198.149 30.33C198.942 30.33 199.616 30.5 200.172 30.84C200.738 31.18 201.169 31.6447 201.464 32.234C201.758 32.812 201.906 33.4637 201.906 34.189C201.906 34.3817 201.9 34.5573 201.889 34.716C201.877 34.8747 201.86 35.0163 201.838 35.141H195.429C195.497 36.0363 195.774 36.7333 196.262 37.232C196.749 37.7307 197.395 37.98 198.2 37.98C198.823 37.98 199.327 37.861 199.713 37.623C200.109 37.385 200.427 37.062 200.665 36.654L201.736 37.283C201.418 37.861 200.959 38.32 200.359 38.66C199.769 39 199.061 39.17 198.234 39.17ZM198.115 31.52C197.401 31.52 196.811 31.7353 196.347 32.166C195.893 32.5853 195.604 33.1747 195.48 33.934H200.546C200.512 33.1633 200.274 32.5683 199.832 32.149C199.39 31.7297 198.817 31.52 198.115 31.52ZM204.492 39V30.5H205.597L205.784 31.894C206.26 30.8513 207.167 30.33 208.504 30.33C208.651 30.33 208.81 30.3413 208.98 30.364C209.161 30.3867 209.314 30.432 209.439 30.5L209.201 31.741C209.076 31.6957 208.94 31.6617 208.793 31.639C208.646 31.6163 208.436 31.605 208.164 31.605C207.813 31.605 207.456 31.707 207.093 31.911C206.742 32.115 206.447 32.4267 206.209 32.846C205.971 33.254 205.852 33.7753 205.852 34.41V39H204.492ZM214.126 39.17C213.299 39.17 212.534 38.9943 211.831 38.643C211.14 38.2917 210.607 37.793 210.233 37.147L211.389 36.314C211.639 36.8353 212.001 37.2433 212.477 37.538C212.965 37.8327 213.548 37.98 214.228 37.98C214.829 37.98 215.299 37.8667 215.639 37.64C215.979 37.402 216.149 37.096 216.149 36.722C216.149 36.484 216.07 36.2687 215.911 36.076C215.764 35.872 215.475 35.7247 215.044 35.634L213.004 35.209C212.177 35.039 211.582 34.7557 211.219 34.359C210.868 33.9623 210.692 33.4693 210.692 32.88C210.692 32.4153 210.823 31.9903 211.083 31.605C211.355 31.2197 211.735 30.9137 212.222 30.687C212.721 30.449 213.305 30.33 213.973 30.33C214.812 30.33 215.52 30.4943 216.098 30.823C216.676 31.1517 217.107 31.6163 217.39 32.217L216.251 32.965C216.059 32.4663 215.747 32.1037 215.316 31.877C214.886 31.639 214.438 31.52 213.973 31.52C213.361 31.52 212.885 31.6447 212.545 31.894C212.205 32.1433 212.035 32.455 212.035 32.829C212.035 33.0783 212.12 33.3107 212.29 33.526C212.46 33.73 212.778 33.8773 213.242 33.968L215.367 34.41C216.161 34.5687 216.716 34.8293 217.033 35.192C217.351 35.5547 217.509 35.9967 217.509 36.518C217.509 37.3227 217.198 37.9687 216.574 38.456C215.951 38.932 215.135 39.17 214.126 39.17Z" fill="white"/>
<defs>
<linearGradient id="paint0_linear_87_27" x1="67" y1="1.27664e-05" x2="370" y2="60" gradientUnits="userSpaceOnUse">
<stop stop-color="#8201AF"/>
<stop offset="1" stop-color="#F85E07"/>
</linearGradient>
</defs>
</svg>
