<svg width="370" height="60" viewBox="0 0 370 60" fill="none" xmlns="http://www.w3.org/2000/svg">
<mask id="mask0_87_36" style="mask-type:alpha" maskUnits="userSpaceOnUse" x="0" y="0" width="370" height="60">
<rect width="370" height="60" rx="3" fill="#007AEB"/>
</mask>
<g mask="url(#mask0_87_36)">
<rect width="370" height="60" rx="3" fill="url(#paint0_linear_87_36)"/>
<circle cx="15" cy="12" r="50" fill="white"/>
<circle opacity="0.5" cx="14" cy="50" r="50" fill="#E5E9F7"/>
</g>
<rect x="0.5" y="0.5" width="369" height="59" rx="2.5" stroke="#E5E5E5"/>
<path d="M24.983 25.197C26.1914 25.197 27.171 24.2174 27.171 23.009C27.171 21.8006 26.1914 20.821 24.983 20.821C23.7746 20.821 22.795 21.8006 22.795 23.009C22.795 24.2174 23.7746 25.197 24.983 25.197Z" fill="#066CA5"/>
<path d="M29.237 26.8549V38.9939H33.006V32.9909C33.006 31.4069 33.304 29.8729 35.268 29.8729C37.205 29.8729 37.229 31.6839 37.229 33.0909V38.9949H41V32.3379C41 29.0679 40.296 26.5549 36.474 26.5549C34.639 26.5549 33.409 27.5619 32.906 28.5149H32.855V26.8549H29.237ZM23.095 26.8549H26.87V38.9939H23.095V26.8549Z" fill="#066CA5"/>
<path d="M97.825 22.3C99.6917 22.3 101.183 22.7083 102.3 23.525C103.417 24.325 103.975 25.425 103.975 26.825C103.975 27.7083 103.758 28.475 103.325 29.125C102.892 29.7583 102.25 30.2333 101.4 30.55V30.575C102.4 30.9083 103.175 31.4 103.725 32.05C104.275 32.6833 104.55 33.5 104.55 34.5C104.55 35.9333 103.95 37.0833 102.75 37.95C101.567 38.8167 99.925 39.25 97.825 39.25C95.7417 39.25 94.1 38.8167 92.9 37.95C91.7167 37.0833 91.125 35.9333 91.125 34.5C91.125 33.5 91.4 32.6833 91.95 32.05C92.5 31.4 93.275 30.9083 94.275 30.575V30.55C93.425 30.2333 92.775 29.7583 92.325 29.125C91.8917 28.475 91.675 27.7083 91.675 26.825C91.675 25.425 92.2333 24.325 93.35 23.525C94.4833 22.7083 95.975 22.3 97.825 22.3ZM97.825 25.425C97.1583 25.425 96.625 25.5917 96.225 25.925C95.8417 26.2583 95.65 26.725 95.65 27.325C95.65 27.9083 95.8417 28.375 96.225 28.725C96.625 29.0583 97.1583 29.225 97.825 29.225C98.4917 29.225 99.025 29.0583 99.425 28.725C99.825 28.375 100.025 27.9083 100.025 27.325C100.025 26.725 99.825 26.2583 99.425 25.925C99.0417 25.5917 98.5083 25.425 97.825 25.425ZM97.825 36.125C98.625 36.125 99.25 35.9417 99.7 35.575C100.15 35.2083 100.375 34.7083 100.375 34.075C100.375 33.425 100.142 32.925 99.675 32.575C99.225 32.2083 98.6083 32.025 97.825 32.025C97.0583 32.025 96.4417 32.2083 95.975 32.575C95.525 32.925 95.3 33.425 95.3 34.075C95.3 34.7083 95.525 35.2083 95.975 35.575C96.425 35.9417 97.0417 36.125 97.825 36.125ZM126.599 22.5V39H122.799V31.425L122.924 26.35H122.874L118.799 39H115.324L111.249 26.35H111.199L111.324 31.425V39H107.499V22.5H113.624L116.224 30.9L117.149 34.4H117.199L118.149 30.925L120.724 22.5H126.599ZM145.271 29.055H138.777V32.676H143.843V33.951H138.777V39H137.417V27.78H145.271V29.055ZM150.127 30.33C150.932 30.33 151.64 30.5057 152.252 30.857C152.876 31.2083 153.363 31.7183 153.714 32.387C154.066 33.0443 154.241 33.832 154.241 34.75C154.241 35.668 154.066 36.4613 153.714 37.13C153.363 37.7873 152.876 38.2917 152.252 38.643C151.64 38.9943 150.932 39.17 150.127 39.17C149.334 39.17 148.626 38.9943 148.002 38.643C147.379 38.2917 146.892 37.7873 146.54 37.13C146.189 36.4613 146.013 35.668 146.013 34.75C146.013 33.832 146.189 33.0443 146.54 32.387C146.892 31.7183 147.379 31.2083 148.002 30.857C148.626 30.5057 149.334 30.33 150.127 30.33ZM150.127 31.503C149.266 31.503 148.592 31.792 148.104 32.37C147.617 32.948 147.373 33.7413 147.373 34.75C147.373 35.7587 147.617 36.552 148.104 37.13C148.592 37.708 149.266 37.997 150.127 37.997C150.989 37.997 151.663 37.708 152.15 37.13C152.638 36.552 152.881 35.7587 152.881 34.75C152.881 33.7413 152.638 32.948 152.15 32.37C151.663 31.792 150.989 31.503 150.127 31.503ZM158.094 26.59V36.841C158.094 37.2717 158.173 37.572 158.332 37.742C158.49 37.9007 158.745 37.98 159.097 37.98C159.323 37.98 159.51 37.963 159.658 37.929C159.805 37.895 160.003 37.8327 160.253 37.742L160.032 38.932C159.658 39.0907 159.238 39.17 158.774 39.17C157.414 39.17 156.734 38.4107 156.734 36.892V26.59H158.094ZM163.29 26.59V36.841C163.29 37.2717 163.369 37.572 163.528 37.742C163.687 37.9007 163.942 37.98 164.293 37.98C164.52 37.98 164.707 37.963 164.854 37.929C165.001 37.895 165.2 37.8327 165.449 37.742L165.228 38.932C164.854 39.0907 164.435 39.17 163.97 39.17C162.61 39.17 161.93 38.4107 161.93 36.892V26.59H163.29ZM170.713 30.33C171.518 30.33 172.226 30.5057 172.838 30.857C173.462 31.2083 173.949 31.7183 174.3 32.387C174.652 33.0443 174.827 33.832 174.827 34.75C174.827 35.668 174.652 36.4613 174.3 37.13C173.949 37.7873 173.462 38.2917 172.838 38.643C172.226 38.9943 171.518 39.17 170.713 39.17C169.92 39.17 169.212 38.9943 168.588 38.643C167.965 38.2917 167.478 37.7873 167.126 37.13C166.775 36.4613 166.599 35.668 166.599 34.75C166.599 33.832 166.775 33.0443 167.126 32.387C167.478 31.7183 167.965 31.2083 168.588 30.857C169.212 30.5057 169.92 30.33 170.713 30.33ZM170.713 31.503C169.852 31.503 169.178 31.792 168.69 32.37C168.203 32.948 167.959 33.7413 167.959 34.75C167.959 35.7587 168.203 36.552 168.69 37.13C169.178 37.708 169.852 37.997 170.713 37.997C171.575 37.997 172.249 37.708 172.736 37.13C173.224 36.552 173.467 35.7587 173.467 34.75C173.467 33.7413 173.224 32.948 172.736 32.37C172.249 31.792 171.575 31.503 170.713 31.503ZM187.781 30.5H189.294L186.336 39H184.976L182.579 32.234L180.318 39H178.958L176 30.5H177.513L179.655 37.419L181.967 30.5H183.327L185.639 37.419L187.781 30.5ZM194.62 39.17C193.816 39.17 193.096 38.9943 192.461 38.643C191.838 38.2917 191.351 37.7873 190.999 37.13C190.648 36.4613 190.472 35.668 190.472 34.75C190.472 33.832 190.648 33.0443 190.999 32.387C191.351 31.7183 191.832 31.2083 192.444 30.857C193.056 30.5057 193.753 30.33 194.535 30.33C195.329 30.33 196.003 30.5 196.558 30.84C197.125 31.18 197.556 31.6447 197.85 32.234C198.145 32.812 198.292 33.4637 198.292 34.189C198.292 34.3817 198.287 34.5573 198.275 34.716C198.264 34.8747 198.247 35.0163 198.224 35.141H191.815C191.883 36.0363 192.161 36.7333 192.648 37.232C193.136 37.7307 193.782 37.98 194.586 37.98C195.21 37.98 195.714 37.861 196.099 37.623C196.496 37.385 196.813 37.062 197.051 36.654L198.122 37.283C197.805 37.861 197.346 38.32 196.745 38.66C196.156 39 195.448 39.17 194.62 39.17ZM194.501 31.52C193.787 31.52 193.198 31.7353 192.733 32.166C192.28 32.5853 191.991 33.1747 191.866 33.934H196.932C196.898 33.1633 196.66 32.5683 196.218 32.149C195.776 31.7297 195.204 31.52 194.501 31.52ZM200.879 39V30.5H201.984L202.171 31.894C202.647 30.8513 203.554 30.33 204.891 30.33C205.038 30.33 205.197 30.3413 205.367 30.364C205.548 30.3867 205.701 30.432 205.826 30.5L205.588 31.741C205.463 31.6957 205.327 31.6617 205.18 31.639C205.033 31.6163 204.823 31.605 204.551 31.605C204.2 31.605 203.843 31.707 203.48 31.911C203.129 32.115 202.834 32.4267 202.596 32.846C202.358 33.254 202.239 33.7753 202.239 34.41V39H200.879ZM210.513 39.17C209.686 39.17 208.921 38.9943 208.218 38.643C207.527 38.2917 206.994 37.793 206.62 37.147L207.776 36.314C208.025 36.8353 208.388 37.2433 208.864 37.538C209.351 37.8327 209.935 37.98 210.615 37.98C211.216 37.98 211.686 37.8667 212.026 37.64C212.366 37.402 212.536 37.096 212.536 36.722C212.536 36.484 212.457 36.2687 212.298 36.076C212.151 35.872 211.862 35.7247 211.431 35.634L209.391 35.209C208.564 35.039 207.969 34.7557 207.606 34.359C207.255 33.9623 207.079 33.4693 207.079 32.88C207.079 32.4153 207.209 31.9903 207.47 31.605C207.742 31.2197 208.122 30.9137 208.609 30.687C209.108 30.449 209.691 30.33 210.36 30.33C211.199 30.33 211.907 30.4943 212.485 30.823C213.063 31.1517 213.494 31.6163 213.777 32.217L212.638 32.965C212.445 32.4663 212.134 32.1037 211.703 31.877C211.272 31.639 210.825 31.52 210.36 31.52C209.748 31.52 209.272 31.6447 208.932 31.894C208.592 32.1433 208.422 32.455 208.422 32.829C208.422 33.0783 208.507 33.3107 208.677 33.526C208.847 33.73 209.164 33.8773 209.629 33.968L211.754 34.41C212.547 34.5687 213.103 34.8293 213.42 35.192C213.737 35.5547 213.896 35.9967 213.896 36.518C213.896 37.3227 213.584 37.9687 212.961 38.456C212.338 38.932 211.522 39.17 210.513 39.17Z" fill="white"/>
<defs>
<linearGradient id="paint0_linear_87_36" x1="67" y1="1.27664e-05" x2="370" y2="60" gradientUnits="userSpaceOnUse">
<stop stop-color="#00669F"/>
<stop offset="1" stop-color="#68C9FF"/>
</linearGradient>
</defs>
</svg>
