<svg width="370" height="60" viewBox="0 0 370 60" fill="none" xmlns="http://www.w3.org/2000/svg">
<mask id="mask0_87_45" style="mask-type:alpha" maskUnits="userSpaceOnUse" x="0" y="0" width="370" height="60">
<rect width="370" height="60" rx="3" fill="#007AEB"/>
</mask>
<g mask="url(#mask0_87_45)">
<rect width="370" height="60" rx="3" fill="url(#paint0_linear_87_45)"/>
<circle cx="15" cy="12" r="50" fill="white"/>
<circle opacity="0.5" cx="14" cy="50" r="50" fill="#E5E9F7"/>
</g>
<rect x="0.5" y="0.5" width="369" height="59" rx="2.5" stroke="#E5E5E5"/>
<path d="M43.5118 25.6728C43.3752 25.1601 43.1083 24.6925 42.7376 24.3166C42.3669 23.9407 41.9053 23.6696 41.3989 23.5302C39.521 23.0085 32.0083 23 32.0083 23C32.0083 23 24.4968 22.9915 22.6178 23.4902C22.1116 23.6359 21.651 23.9109 21.2802 24.2886C20.9093 24.6664 20.6407 25.1343 20.5 25.6473C20.0048 27.5473 20 31.4879 20 31.4879C20 31.4879 19.9952 35.4479 20.4869 37.3284C20.7627 38.3682 21.5721 39.1895 22.601 39.4698C24.498 39.9915 31.9903 40 31.9903 40C31.9903 40 39.503 40.0085 41.3809 39.5111C41.8875 39.3719 42.3495 39.1014 42.7211 38.7263C43.0927 38.3512 43.3611 37.8844 43.4998 37.3721C43.9962 35.4734 43.9998 31.534 43.9998 31.534C43.9998 31.534 44.0238 27.5727 43.5118 25.6728ZM29.6052 35.1385L29.6112 27.8591L35.8552 31.5049L29.6052 35.1385Z" fill="#EB0000"/>
<path d="M94.775 39V29.5C94.775 29.0667 94.775 28.625 94.775 28.175C94.7917 27.7083 94.8 27.2333 94.8 26.75C94.25 27.2667 93.6333 27.7083 92.95 28.075C92.2833 28.4417 91.5917 28.6917 90.875 28.825L90.475 25.275C91.0417 25.2083 91.6583 25.0333 92.325 24.75C93.0083 24.4667 93.6417 24.125 94.225 23.725C94.8083 23.3083 95.2333 22.9 95.5 22.5H98.925V39H94.775ZM102.267 39V36.25C104.15 35.0667 105.667 33.9917 106.817 33.025C107.983 32.0417 108.833 31.125 109.367 30.275C109.9 29.425 110.167 28.6167 110.167 27.85C110.167 27.2167 109.975 26.6917 109.592 26.275C109.225 25.8417 108.675 25.625 107.942 25.625C107.158 25.625 106.542 25.9167 106.092 26.5C105.658 27.0667 105.433 27.9 105.417 29L101.742 27.875C101.775 26.6583 102.067 25.6333 102.617 24.8C103.183 23.95 103.95 23.3167 104.917 22.9C105.883 22.4667 106.983 22.25 108.217 22.25C109.667 22.25 110.85 22.5167 111.767 23.05C112.683 23.5667 113.358 24.2333 113.792 25.05C114.225 25.85 114.442 26.6833 114.442 27.55C114.442 29.15 113.833 30.6083 112.617 31.925C111.4 33.225 109.675 34.5167 107.442 35.8V35.825C107.858 35.7917 108.383 35.7667 109.017 35.75C109.667 35.7333 110.25 35.725 110.767 35.725H114.642V39H102.267ZM121.434 21.2V31.75L126.184 26.5H130.909L126.309 31.4L131.184 39H126.484L123.459 33.875L121.434 36.125V39H117.184V21.2H121.434ZM143.438 27.61C144.424 27.61 145.274 27.814 145.988 28.222C146.702 28.6187 147.297 29.208 147.773 29.99L146.634 30.874C146.215 30.1487 145.739 29.6387 145.206 29.344C144.685 29.038 144.05 28.885 143.302 28.885C142.395 28.885 141.732 29.0663 141.313 29.429C140.894 29.7917 140.684 30.2337 140.684 30.755C140.684 31.1517 140.809 31.503 141.058 31.809C141.307 32.1037 141.806 32.336 142.554 32.506L144.985 33.05C146.062 33.288 146.81 33.6507 147.229 34.138C147.66 34.614 147.875 35.209 147.875 35.923C147.875 36.5577 147.694 37.1243 147.331 37.623C146.98 38.1103 146.481 38.49 145.835 38.762C145.189 39.034 144.43 39.17 143.557 39.17C142.344 39.17 141.341 38.932 140.548 38.456C139.755 37.9687 139.148 37.3793 138.729 36.688L139.919 35.719C140.248 36.365 140.712 36.892 141.313 37.3C141.925 37.6967 142.701 37.895 143.642 37.895C144.515 37.895 145.2 37.7363 145.699 37.419C146.209 37.1017 146.464 36.6427 146.464 36.042C146.464 35.6793 146.345 35.3563 146.107 35.073C145.869 34.7783 145.421 34.5573 144.764 34.41L142.129 33.815C141.086 33.5883 140.344 33.22 139.902 32.71C139.471 32.2 139.256 31.6107 139.256 30.942C139.256 30.3413 139.42 29.7917 139.749 29.293C140.089 28.783 140.571 28.375 141.194 28.069C141.829 27.763 142.577 27.61 143.438 27.61ZM153.464 39.17C152.92 39.17 152.404 39.068 151.917 38.864C151.441 38.66 151.05 38.3313 150.744 37.878C150.449 37.4133 150.302 36.8127 150.302 36.076V30.5H151.662V35.719C151.662 36.5803 151.849 37.1753 152.223 37.504C152.597 37.8213 153.124 37.98 153.804 37.98C154.234 37.98 154.642 37.8837 155.028 37.691C155.413 37.487 155.73 37.1753 155.98 36.756C156.229 36.3367 156.354 35.7927 156.354 35.124V30.5H157.714V39H156.524L156.439 37.708C156.144 38.218 155.742 38.592 155.232 38.83C154.733 39.0567 154.144 39.17 153.464 39.17ZM165.044 39.17C164.398 39.17 163.82 39.017 163.31 38.711C162.8 38.405 162.415 38.0027 162.154 37.504L162.069 39H160.879V26.59H162.239V31.826C162.511 31.384 162.891 31.027 163.378 30.755C163.877 30.4717 164.438 30.33 165.061 30.33C165.764 30.33 166.41 30.5057 166.999 30.857C167.588 31.2083 168.059 31.7127 168.41 32.37C168.761 33.0273 168.937 33.8207 168.937 34.75C168.937 35.668 168.756 36.4613 168.393 37.13C168.042 37.7873 167.571 38.2917 166.982 38.643C166.393 38.9943 165.747 39.17 165.044 39.17ZM164.908 37.98C165.747 37.98 166.398 37.6853 166.863 37.096C167.339 36.5067 167.577 35.7247 167.577 34.75C167.577 33.7753 167.345 32.9933 166.88 32.404C166.415 31.8147 165.764 31.52 164.925 31.52C164.132 31.52 163.486 31.8203 162.987 32.421C162.488 33.0217 162.239 33.8093 162.239 34.784C162.239 35.7587 162.483 36.535 162.97 37.113C163.469 37.691 164.115 37.98 164.908 37.98ZM174.597 39.17C173.77 39.17 173.005 38.9943 172.302 38.643C171.611 38.2917 171.078 37.793 170.704 37.147L171.86 36.314C172.109 36.8353 172.472 37.2433 172.948 37.538C173.435 37.8327 174.019 37.98 174.699 37.98C175.3 37.98 175.77 37.8667 176.11 37.64C176.45 37.402 176.62 37.096 176.62 36.722C176.62 36.484 176.541 36.2687 176.382 36.076C176.235 35.872 175.946 35.7247 175.515 35.634L173.475 35.209C172.648 35.039 172.053 34.7557 171.69 34.359C171.339 33.9623 171.163 33.4693 171.163 32.88C171.163 32.4153 171.293 31.9903 171.554 31.605C171.826 31.2197 172.206 30.9137 172.693 30.687C173.192 30.449 173.775 30.33 174.444 30.33C175.283 30.33 175.991 30.4943 176.569 30.823C177.147 31.1517 177.578 31.6163 177.861 32.217L176.722 32.965C176.529 32.4663 176.218 32.1037 175.787 31.877C175.356 31.639 174.909 31.52 174.444 31.52C173.832 31.52 173.356 31.6447 173.016 31.894C172.676 32.1433 172.506 32.455 172.506 32.829C172.506 33.0783 172.591 33.3107 172.761 33.526C172.931 33.73 173.248 33.8773 173.713 33.968L175.838 34.41C176.631 34.5687 177.187 34.8293 177.504 35.192C177.821 35.5547 177.98 35.9967 177.98 36.518C177.98 37.3227 177.668 37.9687 177.045 38.456C176.422 38.932 175.606 39.17 174.597 39.17ZM184.021 30.33C184.894 30.33 185.619 30.534 186.197 30.942C186.775 31.3387 187.223 31.8883 187.54 32.591L186.248 33.203C186.067 32.659 185.789 32.2453 185.415 31.962C185.052 31.6673 184.576 31.52 183.987 31.52C183.137 31.52 182.468 31.809 181.981 32.387C181.505 32.9537 181.267 33.7413 181.267 34.75C181.267 35.7587 181.505 36.552 181.981 37.13C182.468 37.6967 183.137 37.98 183.987 37.98C184.656 37.98 185.188 37.827 185.585 37.521C185.982 37.215 186.242 36.7843 186.367 36.229L187.625 36.671C187.342 37.453 186.894 38.065 186.282 38.507C185.681 38.949 184.928 39.17 184.021 39.17C183.228 39.17 182.519 38.9943 181.896 38.643C181.273 38.2917 180.785 37.7873 180.434 37.13C180.083 36.4613 179.907 35.668 179.907 34.75C179.907 33.832 180.083 33.0443 180.434 32.387C180.785 31.7183 181.273 31.2083 181.896 30.857C182.519 30.5057 183.228 30.33 184.021 30.33ZM190.015 39V30.5H191.12L191.307 31.894C191.783 30.8513 192.689 30.33 194.027 30.33C194.174 30.33 194.333 30.3413 194.503 30.364C194.684 30.3867 194.837 30.432 194.962 30.5L194.724 31.741C194.599 31.6957 194.463 31.6617 194.316 31.639C194.168 31.6163 193.959 31.605 193.687 31.605C193.335 31.605 192.978 31.707 192.616 31.911C192.264 32.115 191.97 32.4267 191.732 32.846C191.494 33.254 191.375 33.7753 191.375 34.41V39H190.015ZM197.634 28.868C197.328 28.868 197.079 28.7773 196.886 28.596C196.705 28.4033 196.614 28.154 196.614 27.848C196.614 27.542 196.705 27.2983 196.886 27.117C197.079 26.9243 197.328 26.828 197.634 26.828C197.94 26.828 198.184 26.9243 198.365 27.117C198.558 27.2983 198.654 27.542 198.654 27.848C198.654 28.154 198.558 28.4033 198.365 28.596C198.184 28.7773 197.94 28.868 197.634 28.868ZM198.314 30.5V39H196.954V30.5H198.314ZM205.635 39.17C204.989 39.17 204.411 39.017 203.901 38.711C203.391 38.405 203.005 38.0027 202.745 37.504L202.66 39H201.47V26.59H202.83V31.826C203.102 31.384 203.481 31.027 203.969 30.755C204.467 30.4717 205.028 30.33 205.652 30.33C206.354 30.33 207 30.5057 207.59 30.857C208.179 31.2083 208.649 31.7127 209.001 32.37C209.352 33.0273 209.528 33.8207 209.528 34.75C209.528 35.668 209.346 36.4613 208.984 37.13C208.632 37.7873 208.162 38.2917 207.573 38.643C206.983 38.9943 206.337 39.17 205.635 39.17ZM205.499 37.98C206.337 37.98 206.989 37.6853 207.454 37.096C207.93 36.5067 208.168 35.7247 208.168 34.75C208.168 33.7753 207.935 32.9933 207.471 32.404C207.006 31.8147 206.354 31.52 205.516 31.52C204.722 31.52 204.076 31.8203 203.578 32.421C203.079 33.0217 202.83 33.8093 202.83 34.784C202.83 35.7587 203.073 36.535 203.561 37.113C204.059 37.691 204.705 37.98 205.499 37.98ZM215.681 39.17C214.876 39.17 214.157 38.9943 213.522 38.643C212.899 38.2917 212.411 37.7873 212.06 37.13C211.709 36.4613 211.533 35.668 211.533 34.75C211.533 33.832 211.709 33.0443 212.06 32.387C212.411 31.7183 212.893 31.2083 213.505 30.857C214.117 30.5057 214.814 30.33 215.596 30.33C216.389 30.33 217.064 30.5 217.619 30.84C218.186 31.18 218.616 31.6447 218.911 32.234C219.206 32.812 219.353 33.4637 219.353 34.189C219.353 34.3817 219.347 34.5573 219.336 34.716C219.325 34.8747 219.308 35.0163 219.285 35.141H212.876C212.944 36.0363 213.222 36.7333 213.709 37.232C214.196 37.7307 214.842 37.98 215.647 37.98C216.27 37.98 216.775 37.861 217.16 37.623C217.557 37.385 217.874 37.062 218.112 36.654L219.183 37.283C218.866 37.861 218.407 38.32 217.806 38.66C217.217 39 216.508 39.17 215.681 39.17ZM215.562 31.52C214.848 31.52 214.259 31.7353 213.794 32.166C213.341 32.5853 213.052 33.1747 212.927 33.934H217.993C217.959 33.1633 217.721 32.5683 217.279 32.149C216.837 31.7297 216.265 31.52 215.562 31.52ZM224.999 39.17C224.172 39.17 223.407 38.9943 222.704 38.643C222.013 38.2917 221.48 37.793 221.106 37.147L222.262 36.314C222.512 36.8353 222.874 37.2433 223.35 37.538C223.838 37.8327 224.421 37.98 225.101 37.98C225.702 37.98 226.172 37.8667 226.512 37.64C226.852 37.402 227.022 37.096 227.022 36.722C227.022 36.484 226.943 36.2687 226.784 36.076C226.637 35.872 226.348 35.7247 225.917 35.634L223.877 35.209C223.05 35.039 222.455 34.7557 222.092 34.359C221.741 33.9623 221.565 33.4693 221.565 32.88C221.565 32.4153 221.696 31.9903 221.956 31.605C222.228 31.2197 222.608 30.9137 223.095 30.687C223.594 30.449 224.178 30.33 224.846 30.33C225.685 30.33 226.393 30.4943 226.971 30.823C227.549 31.1517 227.98 31.6163 228.263 32.217L227.124 32.965C226.932 32.4663 226.62 32.1037 226.189 31.877C225.759 31.639 225.311 31.52 224.846 31.52C224.234 31.52 223.758 31.6447 223.418 31.894C223.078 32.1433 222.908 32.455 222.908 32.829C222.908 33.0783 222.993 33.3107 223.163 33.526C223.333 33.73 223.651 33.8773 224.115 33.968L226.24 34.41C227.034 34.5687 227.589 34.8293 227.906 35.192C228.224 35.5547 228.382 35.9967 228.382 36.518C228.382 37.3227 228.071 37.9687 227.447 38.456C226.824 38.932 226.008 39.17 224.999 39.17Z" fill="white"/>
<defs>
<linearGradient id="paint0_linear_87_45" x1="67" y1="1.27664e-05" x2="370" y2="60" gradientUnits="userSpaceOnUse">
<stop stop-color="#EB0000"/>
<stop offset="1" stop-color="#FF6262"/>
</linearGradient>
</defs>
</svg>
