<svg width="770" height="40" viewBox="0 0 770 40" fill="none" xmlns="http://www.w3.org/2000/svg">
<line y1="19.5" x2="770" y2="19.5" stroke="#CFD4E4"/>
<rect x="295.5" y="0.5" width="149" height="39" rx="19.5" fill="white" stroke="#CFD4E4"/>
<path d="M329.287 24.113H335.203V26H326.941V14.78H329.287V24.113ZM340.665 17.33C341.515 17.33 342.268 17.5057 342.926 17.857C343.583 18.2083 344.093 18.7127 344.456 19.37C344.83 20.0273 345.017 20.8207 345.017 21.75C345.017 22.6793 344.83 23.4727 344.456 24.13C344.093 24.7873 343.583 25.2917 342.926 25.643C342.268 25.9943 341.515 26.17 340.665 26.17C339.803 26.17 339.044 25.9943 338.387 25.643C337.741 25.2917 337.231 24.7873 336.857 24.13C336.494 23.4727 336.313 22.6793 336.313 21.75C336.313 20.8207 336.494 20.0273 336.857 19.37C337.231 18.7127 337.741 18.2083 338.387 17.857C339.044 17.5057 339.803 17.33 340.665 17.33ZM340.665 19.064C340.03 19.064 339.531 19.2907 339.169 19.744C338.817 20.186 338.642 20.8547 338.642 21.75C338.642 22.6453 338.817 23.3197 339.169 23.773C339.531 24.215 340.03 24.436 340.665 24.436C341.288 24.436 341.775 24.215 342.127 23.773C342.489 23.3197 342.671 22.6453 342.671 21.75C342.671 20.8547 342.489 20.186 342.127 19.744C341.775 19.2907 341.288 19.064 340.665 19.064ZM351.786 20.577C351.786 20.0897 351.644 19.71 351.361 19.438C351.089 19.166 350.726 19.03 350.273 19.03C349.854 19.03 349.485 19.1377 349.168 19.353C348.851 19.5683 348.618 19.9253 348.471 20.424L346.482 19.812C346.675 19.064 347.094 18.4633 347.74 18.01C348.397 17.5567 349.276 17.33 350.375 17.33C351.486 17.33 352.381 17.5963 353.061 18.129C353.752 18.6503 354.098 19.4323 354.098 20.475V23.926C354.098 24.3567 354.302 24.572 354.71 24.572C354.903 24.572 355.084 24.5437 355.254 24.487L355.118 25.932C354.823 26.0793 354.455 26.153 354.013 26.153C353.526 26.153 353.101 26.051 352.738 25.847C352.387 25.643 352.149 25.337 352.024 24.929C351.752 25.337 351.361 25.6487 350.851 25.864C350.352 26.068 349.837 26.17 349.304 26.17C348.443 26.17 347.757 25.9773 347.247 25.592C346.748 25.1953 346.499 24.623 346.499 23.875C346.499 23.2403 346.703 22.7247 347.111 22.328C347.519 21.92 348.103 21.6423 348.862 21.495L351.786 20.9V20.577ZM348.828 23.654C348.828 23.9373 348.93 24.1527 349.134 24.3C349.349 24.4473 349.604 24.521 349.899 24.521C350.228 24.521 350.534 24.47 350.817 24.368C351.1 24.266 351.333 24.096 351.514 23.858C351.695 23.6087 351.786 23.28 351.786 22.872V22.345L350.001 22.702C349.616 22.7813 349.321 22.889 349.117 23.025C348.924 23.1497 348.828 23.3593 348.828 23.654ZM359.908 26.17C359.205 26.17 358.576 25.9943 358.021 25.643C357.477 25.2917 357.046 24.793 356.729 24.147C356.423 23.4897 356.27 22.6963 356.27 21.767C356.27 20.8263 356.434 20.0273 356.763 19.37C357.092 18.7013 357.534 18.197 358.089 17.857C358.656 17.5057 359.29 17.33 359.993 17.33C360.605 17.33 361.132 17.4773 361.574 17.772C362.016 18.0667 362.35 18.4577 362.577 18.945V13.777H364.906V26H362.815L362.713 24.351C362.475 24.9177 362.107 25.3653 361.608 25.694C361.109 26.0113 360.543 26.17 359.908 26.17ZM360.588 24.385C361.189 24.385 361.67 24.1527 362.033 23.688C362.396 23.212 362.577 22.5433 362.577 21.682C362.577 20.866 362.396 20.237 362.033 19.795C361.682 19.3417 361.211 19.115 360.622 19.115C359.987 19.115 359.489 19.3417 359.126 19.795C358.775 20.237 358.599 20.8887 358.599 21.75C358.599 22.6113 358.775 23.2687 359.126 23.722C359.477 24.164 359.965 24.385 360.588 24.385ZM385.045 14.78V26H382.937V20.152L383.039 16.871H383.005L379.894 26H377.973L374.879 16.871H374.845L374.964 20.152V26H372.839V14.78H376.239L378.262 20.9L378.976 23.433H379.01L379.741 20.917L381.747 14.78H385.045ZM391.543 17.33C392.393 17.33 393.147 17.5057 393.804 17.857C394.461 18.2083 394.971 18.7127 395.334 19.37C395.708 20.0273 395.895 20.8207 395.895 21.75C395.895 22.6793 395.708 23.4727 395.334 24.13C394.971 24.7873 394.461 25.2917 393.804 25.643C393.147 25.9943 392.393 26.17 391.543 26.17C390.682 26.17 389.922 25.9943 389.265 25.643C388.619 25.2917 388.109 24.7873 387.735 24.13C387.372 23.4727 387.191 22.6793 387.191 21.75C387.191 20.8207 387.372 20.0273 387.735 19.37C388.109 18.7127 388.619 18.2083 389.265 17.857C389.922 17.5057 390.682 17.33 391.543 17.33ZM391.543 19.064C390.908 19.064 390.41 19.2907 390.047 19.744C389.696 20.186 389.52 20.8547 389.52 21.75C389.52 22.6453 389.696 23.3197 390.047 23.773C390.41 24.215 390.908 24.436 391.543 24.436C392.166 24.436 392.654 24.215 393.005 23.773C393.368 23.3197 393.549 22.6453 393.549 21.75C393.549 20.8547 393.368 20.186 393.005 19.744C392.654 19.2907 392.166 19.064 391.543 19.064ZM397.869 26V17.5H399.892L400.045 19.166C400.261 18.588 400.584 18.1403 401.014 17.823C401.456 17.4943 402.012 17.33 402.68 17.33C403.077 17.33 403.383 17.3923 403.598 17.517L403.326 19.472C403.213 19.438 403.071 19.4097 402.901 19.387C402.743 19.353 402.533 19.336 402.272 19.336C401.921 19.336 401.587 19.421 401.269 19.591C400.963 19.7497 400.708 19.999 400.504 20.339C400.3 20.6677 400.198 21.087 400.198 21.597V26H397.869ZM408.845 26.17C407.507 26.17 406.436 25.7847 405.632 25.014C404.827 24.232 404.425 23.144 404.425 21.75C404.425 20.8207 404.606 20.0273 404.969 19.37C405.331 18.7127 405.836 18.2083 406.482 17.857C407.139 17.5057 407.887 17.33 408.726 17.33C409.587 17.33 410.318 17.5057 410.919 17.857C411.519 18.197 411.978 18.6673 412.296 19.268C412.613 19.8573 412.772 20.5317 412.772 21.291C412.772 21.5177 412.766 21.733 412.755 21.937C412.743 22.141 412.726 22.3223 412.704 22.481H406.703C406.793 23.1383 407.02 23.6313 407.383 23.96C407.757 24.2773 408.238 24.436 408.828 24.436C409.326 24.436 409.729 24.3397 410.035 24.147C410.341 23.9543 410.579 23.688 410.749 23.348L412.602 24.062C412.33 24.7307 411.854 25.252 411.174 25.626C410.494 25.9887 409.717 26.17 408.845 26.17ZM408.709 19.047C407.609 19.047 406.946 19.6533 406.72 20.866H410.545C410.477 20.2767 410.284 19.829 409.967 19.523C409.661 19.2057 409.241 19.047 408.709 19.047Z" fill="#E12127"/>
</svg>
