<svg width="30" height="30" viewBox="0 0 30 30" fill="none" xmlns="http://www.w3.org/2000/svg">
<g clip-path="url(#clip0_8_9)">
<path d="M8.48812 20.625C8.69907 18.724 9.54964 16.9511 10.9004 15.5969C12.2511 14.2428 14.0219 13.3877 15.9223 13.1719C17.8228 12.9562 19.7401 13.3925 21.3601 14.4094C22.98 15.4263 24.2064 16.9634 24.8381 18.7687C26.2857 18.8872 27.6314 19.5611 28.5934 20.6492C29.5555 21.7374 30.0593 23.1555 29.9995 24.6067C29.9396 26.058 29.3207 27.4298 28.2724 28.4351C27.224 29.4403 25.8274 30.0011 24.375 30H8.43749C7.19429 30 6.002 29.5061 5.12293 28.6271C4.24385 27.748 3.74999 26.5557 3.74999 25.3125C3.74999 24.0693 4.24385 22.877 5.12293 21.9979C6.002 21.1189 7.19429 20.625 8.43749 20.625H8.48812Z" fill="white"/>
<path d="M10.3125 2.8125C10.3125 2.56386 10.4113 2.3254 10.5871 2.14959C10.7629 1.97377 11.0014 1.875 11.25 1.875C11.4987 1.875 11.7371 1.97377 11.9129 2.14959C12.0887 2.3254 12.1875 2.56386 12.1875 2.8125V4.6875C12.1875 4.93614 12.0887 5.1746 11.9129 5.35041C11.7371 5.52623 11.4987 5.625 11.25 5.625C11.0014 5.625 10.7629 5.52623 10.5871 5.35041C10.4113 5.1746 10.3125 4.93614 10.3125 4.6875V2.8125ZM3.29439 6.495C3.20485 6.40852 3.13343 6.30507 3.0843 6.19069C3.03517 6.07631 3.0093 5.95329 3.00822 5.82881C3.00714 5.70433 3.03086 5.58088 3.078 5.46567C3.12514 5.35045 3.19475 5.24578 3.28277 5.15775C3.3708 5.06973 3.47547 5.00012 3.59069 4.95298C3.7059 4.90584 3.82935 4.88212 3.95383 4.8832C4.07831 4.88428 4.20133 4.91015 4.31571 4.95928C4.43009 5.00841 4.53354 5.07983 4.62002 5.16937L5.94752 6.495C6.12356 6.67104 6.22245 6.9098 6.22245 7.15875C6.22245 7.4077 6.12356 7.64646 5.94752 7.8225C5.77148 7.99854 5.53272 8.09743 5.28377 8.09743C5.03481 8.09743 4.79606 7.99854 4.62002 7.8225L3.29439 6.495ZM17.88 5.16937C18.0568 4.9986 18.2936 4.90411 18.5395 4.90624C18.7853 4.90838 19.0204 5.00697 19.1942 5.18079C19.368 5.35461 19.4666 5.58975 19.4688 5.83556C19.4709 6.08137 19.3764 6.31819 19.2056 6.495L17.88 7.8225C17.7929 7.90966 17.6894 7.97881 17.5755 8.02598C17.4616 8.07315 17.3395 8.09743 17.2163 8.09743C17.093 8.09743 16.9709 8.07315 16.857 8.02598C16.7432 7.97881 16.6397 7.90966 16.5525 7.8225C16.4654 7.73533 16.3962 7.63186 16.349 7.51797C16.3019 7.40408 16.2776 7.28202 16.2776 7.15875C16.2776 7.03548 16.3019 6.91342 16.349 6.79953C16.3962 6.68564 16.4654 6.58216 16.5525 6.495L17.88 5.16937ZM14.6288 11.4956C14.3957 11.0127 14.0618 10.5854 13.6496 10.2424C13.2374 9.89953 12.7564 9.64901 12.2391 9.50778C11.7218 9.36655 11.1803 9.33789 10.651 9.42375C10.1217 9.5096 9.61698 9.70797 9.17087 10.0055C8.72475 10.303 8.34762 10.6927 8.06493 11.1483C7.78223 11.604 7.60053 12.1149 7.5321 12.6468C7.46366 13.1786 7.51007 13.7189 7.6682 14.2313C7.82633 14.7436 8.09251 15.2161 8.44877 15.6169C8.07564 16.1438 7.75127 16.7081 7.48127 17.3006C6.84584 16.7265 6.34989 16.0149 6.03124 15.22C5.71258 14.4251 5.57962 13.5679 5.64251 12.7139C5.70539 11.8598 5.96246 11.0314 6.39411 10.2917C6.82575 9.55208 7.42059 8.92076 8.13325 8.4459C8.84592 7.97103 9.6576 7.66516 10.5064 7.5516C11.3552 7.43804 12.2188 7.51979 13.0312 7.79061C13.8436 8.06144 14.5835 8.5142 15.1944 9.11436C15.8053 9.71452 16.2711 10.4462 16.5563 11.2537C15.8963 11.2744 15.2513 11.3569 14.6288 11.4956ZM6.22127 19.1344C5.09627 19.5375 4.11189 20.2406 3.36752 21.1444C3.26544 21.0617 3.18188 20.9585 3.12224 20.8415C3.0626 20.7245 3.02822 20.5962 3.02132 20.465C3.01443 20.3339 3.03517 20.2027 3.08221 20.0801C3.12926 19.9574 3.20155 19.846 3.29439 19.7531L4.62002 18.4275C4.75367 18.2931 4.92494 18.2023 5.11123 18.1672C5.29752 18.132 5.49008 18.1542 5.66351 18.2308C5.83693 18.3074 5.98307 18.4347 6.08265 18.596C6.18223 18.7573 6.23056 18.945 6.22127 19.1344ZM2.81252 12.1875C3.06116 12.1875 3.29962 12.2863 3.47543 12.4621C3.65125 12.6379 3.75002 12.8764 3.75002 13.125C3.75002 13.3736 3.65125 13.6121 3.47543 13.7879C3.29962 13.9637 3.06116 14.0625 2.81252 14.0625H0.937519C0.688879 14.0625 0.450422 13.9637 0.274607 13.7879C0.0987911 13.6121 1.90735e-05 13.3736 1.90735e-05 13.125C1.90735e-05 12.8764 0.0987911 12.6379 0.274607 12.4621C0.450422 12.2863 0.688879 12.1875 0.937519 12.1875H2.81252Z" fill="#FFD702"/>
</g>
<defs>
<clipPath id="clip0_8_9">
<rect width="30" height="30" fill="white" transform="matrix(-1 0 0 1 30 0)"/>
</clipPath>
</defs>
</svg>
